<?xml version="1.0" encoding="utf-8"?>
<!-- Generator: Adobe Illustrator 16.0.0, SVG Export Plug-In . SVG Version: 6.00 Build 0)  -->
<!DOCTYPE svg PUBLIC "-//W3C//DTD SVG 1.1//EN" "http://www.w3.org/Graphics/SVG/1.1/DTD/svg11.dtd">
<svg version="1.1" id="Layer_1" xmlns="http://www.w3.org/2000/svg" xmlns:xlink="http://www.w3.org/1999/xlink" x="0px" y="0px"
	 width="450px" height="450px" viewBox="0 0 450 450" enable-background="new 0 0 450 450" xml:space="preserve">
<g id="XMLID_1336_">
	<path id="XMLID_3973_" fill="none" stroke="#285E6E" stroke-width="2" stroke-miterlimit="10" d="M338.676,162.173
		c0,1.123-0.789,1.578-1.762,1.016c-0.972-0.561-1.76-1.925-1.76-3.048c0-1.123,0.788-1.578,1.76-1.017
		C337.887,159.687,338.676,161.051,338.676,162.173z"/>
	<path id="XMLID_1143_" fill="none" stroke="#285E6E" stroke-width="2" stroke-miterlimit="10" d="M195.2,37.511
		c0,1.123-0.787,1.577-1.759,1.016c-0.973-0.562-1.761-1.926-1.761-3.048c0-1.124,0.789-1.578,1.761-1.017
		C194.413,35.023,195.2,36.389,195.2,37.511z"/>
	<path id="XMLID_1150_" fill="none" stroke="#285E6E" stroke-width="2" stroke-miterlimit="10" d="M360.613,120.556
		c0,1.123-0.788,1.577-1.76,1.016c-0.972-0.56-1.76-1.926-1.76-3.048s0.788-1.577,1.76-1.016
		C359.825,118.069,360.613,119.433,360.613,120.556z"/>
	<path id="XMLID_1151_" fill="none" stroke="#285E6E" stroke-width="2" stroke-miterlimit="10" d="M206.622,20.391
		c0,1.123-0.789,1.577-1.761,1.016s-1.759-1.927-1.759-3.048c0-1.123,0.787-1.578,1.759-1.017
		C205.833,17.904,206.622,19.269,206.622,20.391z"/>
	<path id="XMLID_1160_" fill="none" stroke="#285E6E" stroke-width="2" stroke-miterlimit="10" d="M266.885,88.364
		c0,1.122-0.789,1.577-1.762,1.016s-1.759-1.927-1.759-3.049c0-1.123,0.786-1.577,1.759-1.017
		C266.096,85.876,266.885,87.242,266.885,88.364z"/>
	<path id="XMLID_1186_" fill="none" stroke="#285E6E" stroke-width="2" stroke-miterlimit="10" d="M328.417,188.47
		c0,1.123-0.789,1.577-1.761,1.017s-1.762-1.926-1.762-3.048c0-1.123,0.79-1.578,1.762-1.017
		C327.628,185.983,328.417,187.347,328.417,188.47z"/>
	<path id="XMLID_1149_" fill="none" stroke="#285E6E" stroke-width="2" stroke-miterlimit="10" d="M144.211,47.103
		c0,1.123-0.788,1.577-1.76,1.016c-0.972-0.561-1.76-1.927-1.76-3.048c0-1.123,0.788-1.577,1.76-1.017
		C143.423,44.616,144.211,45.981,144.211,47.103z"/>
	<path id="XMLID_537_" fill="none" stroke="#265D6D" stroke-width="2" stroke-miterlimit="10" d="M354.762,156.296
		c0,3.799-2.668,5.338-5.957,3.439c-3.29-1.899-5.956-6.519-5.956-10.316c0-3.8,2.666-5.339,5.956-3.439
		C352.094,147.879,354.762,152.498,354.762,156.296z"/>
	<path id="XMLID_1148_" fill="#265D6D" stroke="#265D6D" stroke-width="2" stroke-miterlimit="10" d="M140.557,66.232
		c0,3.8-2.667,5.339-5.957,3.439c-3.29-1.9-5.956-6.519-5.956-10.317c0-3.8,2.666-5.339,5.956-3.439
		C137.89,57.815,140.557,62.434,140.557,66.232z"/>
	<path id="XMLID_4254_" fill="#ECECEC" d="M116.876,441.541l-43.025-24.84c-7.121-4.112-7.121-14.391,0-18.5l43.024-24.842
		c9.417-5.435,21.018-5.435,30.433,0l43.025,24.842c7.12,4.109,7.12,14.388,0,18.5l-43.025,24.84
		C137.893,446.977,126.291,446.977,116.876,441.541z"/>
	<polygon id="XMLID_4253_" fill="#ECECEC" points="251.092,440.82 288.182,440.82 413.017,368.747 190.893,240.504 72.344,311.245 
		279.385,428.855 251.172,428.819 	"/>
	<g id="XMLID_4250_">
		<path id="XMLID_4252_" fill="#273238" d="M154.24,360.285c0,0,17.375-5.949,23.071-4.16c5.696,1.787,0.95,12.326-13.103,20.016
			c-14.051,7.69-19.689,5.349-22.52,1.805c-2.231-2.796,1.95-14.096,1.95-14.096L154.24,360.285z"/>
		<path id="XMLID_4251_" fill="#5E4238" d="M131.66,253.885c0,0,19.479-11.646,27.327,7.342c7.251,17.546-2.274,91.87-3.767,103.083
			c-0.13,0.983-0.747,1.828-1.648,2.24c-1.568,0.718-4.231,1.497-7.151,0.431c-1.392-0.509-2.435-1.688-2.783-3.131l-17.818-74.064
			L131.66,253.885z"/>
	</g>
	<g id="XMLID_4247_">
		<path id="XMLID_4249_" fill="#273238" d="M182.765,375.992c0,0,17.376-5.946,23.073-4.159c5.695,1.788,0.949,12.325-13.102,20.015
			c-14.052,7.692-19.688,5.35-22.521,1.806c-2.23-2.794,1.951-14.096,1.951-14.096L182.765,375.992z"/>
		<path id="XMLID_4248_" fill="#5E4238" d="M160.185,269.593c0,0,19.479-11.646,27.327,7.343
			c7.251,17.543-2.275,91.868-3.767,103.084c-0.13,0.982-0.748,1.825-1.648,2.238c-1.567,0.72-4.231,1.496-7.15,0.432
			c-1.393-0.509-2.435-1.689-2.782-3.132l-17.821-74.064L160.185,269.593z"/>
	</g>
	<g id="XMLID_4231_">
		<g id="XMLID_4236_">
			<g id="XMLID_4239_">
				<path id="XMLID_4246_" fill="#90A4AE" d="M119.41,403.458l32.058-18.51c0.845-0.487,1.201-1.145,1.21-1.829l0.064-0.029v7.812
					l-0.128,0.057c-0.112,0.573-0.427,1.119-1.146,1.535l-32.058,18.509V403.458L119.41,403.458z"/>
				<path id="XMLID_4245_" fill="#90A4AE" d="M152.717,422.416l0.007,0.002v-7.615v-0.208L86.057,383.09v7.812l0.128,0.057
					c0.112,0.573,0.427,1.119,1.147,1.535l56.242,32.472c1.886,1.089,5.185,0.952,7.365-0.305
					C152.056,424.014,152.644,423.203,152.717,422.416z"/>
				<g id="XMLID_4240_">
					<path id="XMLID_4244_" fill="#90A4AE" d="M87.861,424.659c-1.117-0.646-1.707-1.457-1.779-2.243l-0.007,0.001v-7.482
						c0.1,0.767,0.7,1.552,1.786,2.179c2.18,1.26,5.479,1.396,7.366,0.306l24.182-13.962l0,0v7.545l-24.182,13.963
						C93.339,426.053,90.041,425.917,87.861,424.659z"/>
					<path id="XMLID_4243_" fill="#4776BA" d="M151.468,412.861l-24.172-13.955l24.172-13.959c0.845-0.487,1.201-1.145,1.21-1.829
						c0.012-0.844-0.535-1.727-1.739-2.425c-2.18-1.257-5.479-1.394-7.365-0.303l-24.173,13.956l-24.172-13.956
						c-1.888-1.092-5.186-0.954-7.366,0.303c-2.18,1.262-2.418,3.165-0.529,4.253l24.172,13.959L87.333,412.86
						c-0.789,0.455-1.122,1.063-1.182,1.698c-0.01,0.117-0.087,0.225-0.074,0.343v0.032c0.1,0.768,0.7,1.553,1.786,2.179
						c2.18,1.26,5.479,1.396,7.366,0.306l24.172-13.956l24.173,13.957c1.887,1.091,5.185,0.953,7.365-0.307
						C153.12,415.856,153.356,413.951,151.468,412.861z"/>
					<path id="XMLID_4242_" fill="#EDEFEF" d="M151.468,412.861l-24.172-13.955l24.172-13.959c0.845-0.487,1.201-1.145,1.21-1.829
						c0.012-0.844-0.535-1.727-1.739-2.425c-2.18-1.257-5.479-1.394-7.365-0.303l-24.173,13.956l-24.172-13.956
						c-1.888-1.092-5.186-0.954-7.366,0.303c-2.18,1.262-2.418,3.165-0.529,4.253l24.172,13.959L87.333,412.86
						c-0.789,0.455-1.122,1.063-1.182,1.698c-0.01,0.117-0.087,0.225-0.074,0.343v0.032c0.1,0.768,0.7,1.553,1.786,2.179
						c2.18,1.26,5.479,1.396,7.366,0.306l24.172-13.956l24.173,13.957c1.887,1.091,5.185,0.953,7.365-0.307
						C153.12,415.856,153.356,413.951,151.468,412.861z"/>
					
						<linearGradient id="XMLID_4_" gradientUnits="userSpaceOnUse" x1="415.2607" y1="-166.4326" x2="477.5849" y2="-166.4326" gradientTransform="matrix(1 0 0 -1 -328.46 229.8398)">
						<stop  offset="0" style="stop-color:#FFFFFF;stop-opacity:0"/>
						<stop  offset="1" style="stop-color:#90A4AE"/>
					</linearGradient>
					<polygon id="XMLID_4241_" fill="url(#XMLID_4_)" points="127.295,398.906 135.23,394.325 139.288,391.981 123.499,391.981 
						119.4,394.348 119.4,394.348 119.4,400.563 130.17,400.563 					"/>
				</g>
			</g>
			<path id="XMLID_4238_" fill="#D1D8DC" d="M119.4,400.563L119.4,400.563c3.833,0,6.939-3.104,6.939-6.939v-27.488h-13.878v27.488
				C112.461,397.459,115.567,400.563,119.4,400.563z"/>
			
				<linearGradient id="XMLID_5_" gradientUnits="userSpaceOnUse" x1="447.8604" y1="-165.1782" x2="447.8604" y2="-136.3067" gradientTransform="matrix(1 0 0 -1 -328.46 229.8398)">
				<stop  offset="0" style="stop-color:#FFFFFF;stop-opacity:0"/>
				<stop  offset="1" style="stop-color:#90A4AE"/>
			</linearGradient>
			<path id="XMLID_4237_" fill="url(#XMLID_5_)" d="M119.4,400.563L119.4,400.563c3.833,0,6.939-3.104,6.939-6.939v-27.488h-13.878
				v27.488C112.461,397.459,115.567,400.563,119.4,400.563z"/>
		</g>
		<path id="XMLID_4235_" fill="#90A4AE" d="M54.687,331.001l28.419-1.061l26.916-15.561c4.482-2.586,11.262-2.867,15.145-0.626
			l23.767,13.722l25.238-0.945v18.058l-0.036,0.002c-0.119,1.641-1.343,3.344-3.673,4.686l-51.626,29.842
			c-4.481,2.59-11.263,2.871-15.144,0.629l-46.385-26.781c-1.695-0.978-2.508-2.279-2.568-3.648l-0.053,0.002L54.687,331.001
			L54.687,331.001z"/>
		
			<linearGradient id="XMLID_6_" gradientUnits="userSpaceOnUse" x1="418.8213" y1="-153.3838" x2="462.8748" y2="-70.8465" gradientTransform="matrix(1 0 0 -1 -328.46 229.8398)">
			<stop  offset="0" style="stop-color:#FFFFFF;stop-opacity:0"/>
			<stop  offset="1" style="stop-color:#90A4AE"/>
		</linearGradient>
		<path id="XMLID_4234_" fill="url(#XMLID_6_)" d="M54.687,331.001l28.419-1.061l26.916-15.561
			c4.482-2.586,11.262-2.867,15.145-0.626l23.767,13.722l25.238-0.945v18.058l-0.036,0.002c-0.119,1.641-1.343,3.344-3.673,4.686
			l-51.626,29.842c-4.481,2.59-11.263,2.871-15.144,0.629l-46.385-26.781c-1.695-0.978-2.508-2.279-2.568-3.648l-0.053,0.002
			L54.687,331.001L54.687,331.001z"/>
		<path id="XMLID_4233_" fill="#EDEFEF" d="M57.309,334.844l46.384,26.777c3.881,2.243,10.663,1.96,15.144-0.626l51.626-29.843
			c4.483-2.587,4.97-6.502,1.088-8.743l-46.385-26.78c-3.882-2.24-10.663-1.96-15.145,0.629l-51.626,29.839
			C53.914,328.687,53.427,332.6,57.309,334.844z"/>
		
			<linearGradient id="XMLID_7_" gradientUnits="userSpaceOnUse" x1="431.4766" y1="-154.4282" x2="451.7317" y2="-55.6845" gradientTransform="matrix(1 0 0 -1 -328.46 229.8398)">
			<stop  offset="0" style="stop-color:#FFFFFF;stop-opacity:0"/>
			<stop  offset="1" style="stop-color:#90A4AE"/>
		</linearGradient>
		<path id="XMLID_4232_" fill="url(#XMLID_7_)" d="M57.309,334.844l46.384,26.777c3.881,2.243,10.663,1.96,15.144-0.626
			l51.626-29.843c4.483-2.587,4.97-6.502,1.088-8.743l-46.385-26.78c-3.882-2.24-10.663-1.96-15.145,0.629l-51.626,29.839
			C53.914,328.687,53.427,332.6,57.309,334.844z"/>
	</g>
	<path id="XMLID_4230_" fill="#5E4238" d="M62.117,302.576c0,0,0.592,44.174,50.344,44.174c22.025,0,70.043-37.099,70.043-37.099
		s5.365-16.79-6.809-25.525c-12.172-8.735-43.603-22.409-43.603-22.409L62.117,302.576z"/>
	<polygon id="XMLID_4229_" fill="#90A4AE" points="65.306,325.331 58.182,329.444 58.182,224.249 65.306,220.135 	"/>
	<polygon id="XMLID_4228_" fill="#FDCCA6" points="344.606,378.605 351.729,382.719 351.729,277.521 344.606,273.409 	"/>
	<polygon id="XMLID_4226_" fill="#EAB588" points="251.092,326.159 51.057,210.668 158.82,148.452 358.854,263.943 	"/>
	
		<linearGradient id="XMLID_8_" gradientUnits="userSpaceOnUse" x1="651.9229" y1="-29.2051" x2="687.3135" y2="-29.2051" gradientTransform="matrix(1 0 0 -1 -328.46 229.8398)">
		<stop  offset="0" style="stop-color:#AD6AA4"/>
		<stop  offset="0.1257" style="stop-color:#B373AA;stop-opacity:0.8743"/>
		<stop  offset="0.3329" style="stop-color:#C08BB8;stop-opacity:0.6671"/>
		<stop  offset="0.5957" style="stop-color:#D6B4D0;stop-opacity:0.4043"/>
		<stop  offset="0.9011" style="stop-color:#F4EAF2;stop-opacity:0.0989"/>
		<stop  offset="1" style="stop-color:#FFFFFF;stop-opacity:0"/>
	</linearGradient>
	<polygon id="XMLID_1076_" fill="url(#XMLID_8_)" points="323.463,268.518 350.424,268.518 358.854,263.943 333.963,249.572 	"/>
	
		<linearGradient id="XMLID_9_" gradientUnits="userSpaceOnUse" x1="461.9883" y1="50.791" x2="524.8203" y2="50.791" gradientTransform="matrix(1 0 0 -1 -328.46 229.8398)">
		<stop  offset="0" style="stop-color:#AD6AA4"/>
		<stop  offset="0.1257" style="stop-color:#B373AA;stop-opacity:0.8743"/>
		<stop  offset="0.3329" style="stop-color:#C08BB8;stop-opacity:0.6671"/>
		<stop  offset="0.5957" style="stop-color:#D6B4D0;stop-opacity:0.4043"/>
		<stop  offset="0.9011" style="stop-color:#F4EAF2;stop-opacity:0.0989"/>
		<stop  offset="1" style="stop-color:#FFFFFF;stop-opacity:0"/>
	</linearGradient>
	<polygon id="XMLID_1071_" fill="url(#XMLID_9_)" points="133.528,181.25 154.346,181.25 158.997,195.719 196.36,195.719 
		196.36,176.585 156.204,162.378 	"/>
	<g id="XMLID_4217_">
		<polygon id="XMLID_4224_" fill="#EDEFEF" points="268.447,311.242 232.333,290.394 280.075,262.829 316.188,283.679 		"/>
		<polygon id="XMLID_4223_" fill="#FFFFFF" points="269.655,305.698 233.545,284.849 281.285,257.285 317.397,278.134 		"/>
		<g id="XMLID_4218_">
			
				<line id="XMLID_4222_" fill="none" stroke="#102B4C" stroke-width="1.5" stroke-linecap="round" stroke-miterlimit="10" x1="279.741" y1="262.699" x2="306.225" y2="277.99"/>
			
				<line id="XMLID_4221_" fill="none" stroke="#102B4C" stroke-width="1.5" stroke-linecap="round" stroke-miterlimit="10" x1="275.472" y1="265.754" x2="301.956" y2="281.046"/>
			
				<line id="XMLID_4220_" fill="none" stroke="#102B4C" stroke-width="1.5" stroke-linecap="round" stroke-miterlimit="10" x1="271.201" y1="268.81" x2="297.685" y2="284.101"/>
			
				<line id="XMLID_4219_" fill="none" stroke="#102B4C" stroke-width="1.5" stroke-linecap="round" stroke-miterlimit="10" x1="266.932" y1="271.865" x2="293.416" y2="287.155"/>
		</g>
	</g>
	<g id="XMLID_2255_">
		<polygon id="XMLID_2261_" fill="#D71A62" points="156.882,158.494 125.373,176.585 125.373,126.551 156.882,108.459 		"/>
		<polygon id="XMLID_2260_" fill="#F06692" points="133.528,181.25 124.345,175.948 124.345,125.858 133.528,131.16 		"/>
		<polygon id="XMLID_2259_" fill="#D71A62" points="165.039,163.158 133.528,181.25 133.528,131.216 165.039,113.124 		"/>
		
			<linearGradient id="XMLID_10_" gradientUnits="userSpaceOnUse" x1="463.3193" y1="101.832" x2="492.0193" y2="63.6778" gradientTransform="matrix(1 0 0 -1 -328.46 229.8398)">
			<stop  offset="0" style="stop-color:#FFFFFF;stop-opacity:0"/>
			<stop  offset="0.1565" style="stop-color:#EDDEE4;stop-opacity:0.1565"/>
			<stop  offset="0.4423" style="stop-color:#D0A7B6;stop-opacity:0.4423"/>
			<stop  offset="0.6884" style="stop-color:#BA7D95;stop-opacity:0.6884"/>
			<stop  offset="0.8823" style="stop-color:#AD6582;stop-opacity:0.8823"/>
			<stop  offset="1" style="stop-color:#A95C7A"/>
		</linearGradient>
		<polygon id="XMLID_2258_" opacity="0.5" fill="url(#XMLID_10_)" enable-background="new    " points="165.039,163.158 
			133.528,181.25 133.528,131.216 165.039,113.124 		"/>
		<polygon id="XMLID_2257_" fill="#ED427C" points="165.039,113.092 164.011,112.496 133.521,129.939 126.501,125.901 
			156.882,108.459 155.855,107.864 125.417,125.276 125.416,125.275 124.345,125.893 125.373,126.551 125.428,126.52 
			133.528,131.216 134.633,130.578 134.606,130.562 		"/>
		<polygon id="XMLID_2256_" fill="#FFFFFF" points="128.591,127.103 156.882,110.869 161.883,113.72 133.521,129.939 		"/>
	</g>
	<g id="XMLID_2248_">
		<polygon id="XMLID_2254_" fill="#FAA826" points="171.701,166.941 147.538,180.825 147.538,135.855 171.701,121.972 		"/>
		<polygon id="XMLID_2253_" fill="#F78C23" points="155.695,185.49 146.511,180.187 146.511,135.162 155.695,140.464 		"/>
		<polygon id="XMLID_2252_" fill="#FAA826" points="179.856,171.606 155.695,185.49 155.695,140.52 179.856,126.637 		"/>
		
			<linearGradient id="XMLID_11_" gradientUnits="userSpaceOnUse" x1="483.5723" y1="80.5674" x2="506.8699" y2="68.0744" gradientTransform="matrix(1 0 0 -1 -328.46 229.8398)">
			<stop  offset="0" style="stop-color:#FFFFFF;stop-opacity:0"/>
			<stop  offset="0.0473" style="stop-color:#FFF9F2;stop-opacity:0.0473"/>
			<stop  offset="0.3094" style="stop-color:#FEDCAA;stop-opacity:0.3094"/>
			<stop  offset="0.5449" style="stop-color:#FCC673;stop-opacity:0.5449"/>
			<stop  offset="0.7458" style="stop-color:#FBB549;stop-opacity:0.7458"/>
			<stop  offset="0.904" style="stop-color:#F9AB30;stop-opacity:0.904"/>
			<stop  offset="1" style="stop-color:#FAA826"/>
		</linearGradient>
		<polygon id="XMLID_2251_" fill="url(#XMLID_11_)" points="179.856,171.606 155.695,185.49 155.695,140.52 179.856,126.637 		"/>
		<polygon id="XMLID_2250_" fill="#FCB74F" points="179.856,126.605 178.829,126.009 155.688,139.242 148.667,135.204 
			171.701,121.972 170.672,121.376 147.583,134.58 147.58,134.579 146.511,135.197 147.538,135.855 147.591,135.824 155.695,140.52 
			156.798,139.881 156.77,139.867 		"/>
		<polygon id="XMLID_2249_" fill="#FFFFFF" points="150.757,136.407 171.701,124.382 176.702,127.233 155.688,139.242 		"/>
	</g>
	<g id="XMLID_2241_">
		<polygon id="XMLID_2247_" fill="#219897" points="182.13,172.99 150.841,191.055 150.841,158.992 182.13,140.927 		"/>
		<polygon id="XMLID_2246_" fill="#71CAC4" points="158.997,195.719 149.813,190.418 149.813,158.297 158.997,163.6 		"/>
		<polygon id="XMLID_2245_" fill="#219897" points="190.286,177.655 158.997,195.719 158.997,163.656 190.286,145.59 		"/>
		
			<linearGradient id="XMLID_12_" gradientUnits="userSpaceOnUse" x1="487.457" y1="59.1851" x2="518.7461" y2="59.1851" gradientTransform="matrix(1 0 0 -1 -328.46 229.8398)">
			<stop  offset="0" style="stop-color:#FFFFFF;stop-opacity:0"/>
			<stop  offset="0.2348" style="stop-color:#C6E6E8;stop-opacity:0.2348"/>
			<stop  offset="0.4939" style="stop-color:#90CDD0;stop-opacity:0.4939"/>
			<stop  offset="0.7172" style="stop-color:#67BBC0;stop-opacity:0.7172"/>
			<stop  offset="0.8932" style="stop-color:#4DAFB4;stop-opacity:0.8932"/>
			<stop  offset="1" style="stop-color:#44ABB1"/>
		</linearGradient>
		<polygon id="XMLID_2244_" fill="url(#XMLID_12_)" points="190.286,177.655 158.997,195.719 158.997,163.656 190.286,145.59 		"/>
		<polygon id="XMLID_2243_" fill="#58BCB5" points="190.286,145.56 189.258,144.963 158.99,162.378 151.969,158.34 182.13,140.926 
			181.103,140.331 150.885,157.716 150.883,157.715 149.813,158.332 150.841,158.992 150.894,158.96 158.997,163.656 
			160.101,163.019 160.074,163.003 		"/>
		<polygon id="XMLID_2242_" fill="#FFFFFF" points="154.059,159.543 182.13,143.336 187.131,146.188 158.99,162.378 		"/>
	</g>
	
		<linearGradient id="XMLID_13_" gradientUnits="userSpaceOnUse" x1="520.5225" y1="-25.1143" x2="569.3441" y2="71.2662" gradientTransform="matrix(1 0 0 -1 -328.46 229.8398)">
		<stop  offset="0" style="stop-color:#AD6AA4"/>
		<stop  offset="0.1257" style="stop-color:#B373AA;stop-opacity:0.8743"/>
		<stop  offset="0.3329" style="stop-color:#C08BB8;stop-opacity:0.6671"/>
		<stop  offset="0.5957" style="stop-color:#D6B4D0;stop-opacity:0.4043"/>
		<stop  offset="0.9011" style="stop-color:#F4EAF2;stop-opacity:0.0989"/>
		<stop  offset="1" style="stop-color:#FFFFFF;stop-opacity:0"/>
	</linearGradient>
	<path id="XMLID_4216_" fill="url(#XMLID_13_)" d="M216.746,210.566l-33.971-19.495c-1.061-0.609-1.165-2.1-0.198-2.85l9.941-7.714
		l59.447,42.016L216.746,210.566z"/>
	<g id="XMLID_4089_">
		
			<linearGradient id="XMLID_14_" gradientUnits="userSpaceOnUse" x1="549.7295" y1="-39.4805" x2="613.2858" y2="-44.1103" gradientTransform="matrix(1 0 0 -1 -328.46 229.8398)">
			<stop  offset="0" style="stop-color:#AD6AA4"/>
			<stop  offset="0.1257" style="stop-color:#B373AA;stop-opacity:0.8743"/>
			<stop  offset="0.3329" style="stop-color:#C08BB8;stop-opacity:0.6671"/>
			<stop  offset="0.5957" style="stop-color:#D6B4D0;stop-opacity:0.4043"/>
			<stop  offset="0.9011" style="stop-color:#F4EAF2;stop-opacity:0.0989"/>
			<stop  offset="1" style="stop-color:#FFFFFF;stop-opacity:0"/>
		</linearGradient>
		<path id="XMLID_4094_" fill="url(#XMLID_14_)" d="M263.568,266.841l-6.179-3.526l-20.303,15.795h10.121
			c3.376,0,6.695-0.888,9.619-2.577l6.754-3.896C265.816,271.346,265.81,268.118,263.568,266.841z"/>
		<path id="XMLID_4093_" fill="#FFFFFF" d="M257.343,259.074l-8.591-4.993c-2.061-1.197-4.546-1.405-6.773-0.564l-8.912,3.353
			c-2.111,0.798-4.005,2.078-5.528,3.743c-2.426,2.653-3.768,6.127-3.755,9.723c0.004,0.94,0.509,1.805,1.32,2.277l10.48,6.09
			c0.933,0.542,2.086,0.545,3.018,0.003l0.649-0.372l-2.114-1.47c0.256-3.161,1.553-6.162,3.707-8.518
			c1.523-1.666,3.417-2.949,5.528-3.743l10.291-3.874l2.141,1.703v-0.821C258.802,260.563,258.245,259.598,257.343,259.074z"/>
		<path id="XMLID_4092_" fill="#E5E5E5" d="M246.37,264.601l10.619-3.996c0.878-0.332,1.815,0.315,1.819,1.255l0.01,3.87
			c0.002,0.806-0.427,1.55-1.124,1.953l-19.285,11.134c-0.588,0.34-1.318-0.082-1.321-0.762l0,0
			c-0.011-3.592,1.329-7.061,3.755-9.71l0,0C242.365,266.679,244.259,265.396,246.37,264.601z"/>
		<polygon id="XMLID_4091_" fill="#78909C" points="251.109,255.452 240.575,258.535 241.044,258.822 251.597,255.734 		"/>
		<path id="XMLID_4090_" fill="#78909C" d="M247.426,255.219l-4.948,1.422c-0.303,0.088-0.531,0.336-0.591,0.645l0,0
			c-0.07,0.353,0.094,0.709,0.403,0.891l0.739,0.425c0.197,0.113,0.431,0.144,0.65,0.078l4.948-1.422
			c0.301-0.087,0.529-0.334,0.591-0.644l0,0c0.067-0.353-0.093-0.709-0.403-0.889l-0.738-0.426
			C247.879,255.184,247.646,255.156,247.426,255.219z"/>
	</g>
	
		<linearGradient id="XMLID_15_" gradientUnits="userSpaceOnUse" x1="586.0654" y1="-58.3232" x2="634.8899" y2="38.063" gradientTransform="matrix(1 0 0 -1 -328.46 229.8398)">
		<stop  offset="0" style="stop-color:#AD6AA4"/>
		<stop  offset="0.1257" style="stop-color:#B373AA;stop-opacity:0.8743"/>
		<stop  offset="0.3329" style="stop-color:#C08BB8;stop-opacity:0.6671"/>
		<stop  offset="0.5957" style="stop-color:#D6B4D0;stop-opacity:0.4043"/>
		<stop  offset="0.9011" style="stop-color:#F4EAF2;stop-opacity:0.0989"/>
		<stop  offset="1" style="stop-color:#FFFFFF;stop-opacity:0"/>
	</linearGradient>
	<path id="XMLID_4088_" fill="url(#XMLID_15_)" d="M224.499,241.368h4.434c3.986,0,7.903-1.021,11.381-2.967l12.629-7.065
		l51.286,29.647c3.166,1.829,7.068,1.821,10.227-0.021l19.508-11.39l-79.848-46.1L224.499,241.368z"/>
	<g id="XMLID_4084_">
		<polygon id="XMLID_4087_" fill="#D28D59" points="251.092,326.159 251.092,335.625 358.854,273.409 358.854,263.943 		"/>
		<polygon id="XMLID_4086_" fill="#D28D59" points="258.217,436.708 258.217,331.512 251.092,335.625 251.092,440.82 		"/>
		<polygon id="XMLID_4085_" fill="#D28D59" points="351.729,382.719 358.854,378.605 358.854,273.409 351.729,277.521 		"/>
	</g>
	<g id="XMLID_4077_">
		<polygon id="XMLID_4079_" fill="#FDCCA6" points="51.057,210.668 51.057,220.135 51.057,325.331 58.182,329.444 58.182,224.249 
			251.092,335.625 251.092,326.159 		"/>
		<polygon id="XMLID_4078_" fill="#FDCCA6" points="243.968,436.708 251.092,440.82 251.092,335.625 243.968,331.512 		"/>
	</g>
	
		<linearGradient id="XMLID_16_" gradientUnits="userSpaceOnUse" x1="400.6318" y1="-58.0161" x2="575.1486" y2="-27.7571" gradientTransform="matrix(1 0 0 -1 -328.46 229.8398)">
		<stop  offset="0" style="stop-color:#AD6AA4"/>
		<stop  offset="0.1257" style="stop-color:#B373AA;stop-opacity:0.8743"/>
		<stop  offset="0.3329" style="stop-color:#C08BB8;stop-opacity:0.6671"/>
		<stop  offset="0.5957" style="stop-color:#D6B4D0;stop-opacity:0.4043"/>
		<stop  offset="0.9011" style="stop-color:#F4EAF2;stop-opacity:0.0989"/>
		<stop  offset="1" style="stop-color:#FFFFFF;stop-opacity:0"/>
	</linearGradient>
	<path id="XMLID_1320_" fill="url(#XMLID_16_)" d="M155.668,232.473c0.666,0.162,65.237,18.705,65.237,18.705l8.612,5.771
		l-0.666,17.84l-28.226,22.233v9.468l-53.088-30.651L155.668,232.473z"/>
	<g id="XMLID_4095_">
		<polygon id="XMLID_4215_" fill="#BEC8CC" points="220.922,247.228 220.905,251.178 198.78,264.035 198.796,260.085 		"/>
		<polygon id="XMLID_4214_" fill="#E5E5E5" points="198.796,260.085 198.78,264.035 140.499,230.387 140.516,226.438 		"/>
		<polygon id="XMLID_4213_" fill="#FFFFFF" points="220.922,247.228 198.796,260.085 140.516,226.438 162.642,213.578 		"/>
		<g id="XMLID_4096_">
			<g id="XMLID_4206_" enable-background="new    ">
				<g id="XMLID_4211_">
					<polygon id="XMLID_4212_" fill="#436772" points="171.661,221.497 171.658,222.684 167.299,225.216 167.304,224.028 					"/>
				</g>
				<g id="XMLID_4209_">
					<polygon id="XMLID_4210_" fill="#BEC8CC" points="167.304,224.028 167.299,225.216 158.632,220.211 158.635,219.024 					"/>
				</g>
				<g id="XMLID_4207_">
					<polygon id="XMLID_4208_" fill="#78909C" points="171.661,221.497 167.304,224.028 158.635,219.024 162.993,216.492 					"/>
				</g>
			</g>
			<g id="XMLID_4199_" enable-background="new    ">
				<g id="XMLID_4204_">
					<polygon id="XMLID_4205_" fill="#436772" points="165.638,224.997 165.635,226.184 161.277,228.716 161.28,227.527 					"/>
				</g>
				<g id="XMLID_4202_">
					<polygon id="XMLID_4203_" fill="#BEC8CC" points="161.28,227.527 161.277,228.716 152.61,223.711 152.613,222.524 					"/>
				</g>
				<g id="XMLID_4200_">
					<polygon id="XMLID_4201_" fill="#78909C" points="165.638,224.997 161.28,227.527 152.613,222.524 156.971,219.992 					"/>
				</g>
			</g>
			<g id="XMLID_4192_" enable-background="new    ">
				<g id="XMLID_4197_">
					<polygon id="XMLID_4198_" fill="#303433" points="156.204,226.545 156.2,227.731 151.842,230.266 151.846,229.077 					"/>
				</g>
				<g id="XMLID_4195_">
					<polygon id="XMLID_4196_" fill="#303433" points="151.846,229.077 151.842,230.266 146.571,227.222 146.575,226.034 					"/>
				</g>
				<g id="XMLID_4193_">
					<polygon id="XMLID_4194_" fill="#434A4B" points="156.204,226.545 151.846,229.077 146.575,226.034 150.933,223.501 					"/>
				</g>
			</g>
			<g id="XMLID_4185_" enable-background="new    ">
				<g id="XMLID_4190_">
					<polygon id="XMLID_4191_" fill="#436772" points="178.527,225.461 178.523,226.649 174.167,229.181 174.169,227.994 					"/>
				</g>
				<g id="XMLID_4188_">
					<polygon id="XMLID_4189_" fill="#BEC8CC" points="174.169,227.994 174.167,229.181 169.161,226.291 169.165,225.103 					"/>
				</g>
				<g id="XMLID_4186_">
					<polygon id="XMLID_4187_" fill="#78909C" points="178.527,225.461 174.169,227.994 169.165,225.103 173.521,222.571 					"/>
				</g>
			</g>
			<g id="XMLID_2204_" enable-background="new    ">
				<g id="XMLID_4183_">
					<polygon id="XMLID_4184_" fill="#436772" points="172.505,228.961 172.501,230.148 168.144,232.681 168.147,231.493 					"/>
				</g>
				<g id="XMLID_4181_">
					<polygon id="XMLID_4182_" fill="#BEC8CC" points="168.147,231.493 168.144,232.681 163.139,229.79 163.144,228.603 					"/>
				</g>
				<g id="XMLID_4179_">
					<polygon id="XMLID_4180_" fill="#78909C" points="172.505,228.961 168.147,231.493 163.144,228.603 167.5,226.072 					"/>
				</g>
			</g>
			<g id="XMLID_4171_" enable-background="new    ">
				<g id="XMLID_2201_">
					<polygon id="XMLID_2202_" fill="#436772" points="185.231,229.332 185.227,230.518 180.87,233.052 180.873,231.863 					"/>
				</g>
				<g id="XMLID_4174_">
					<polygon id="XMLID_4175_" fill="#BEC8CC" points="180.873,231.863 180.87,233.052 175.865,230.161 175.868,228.975 					"/>
				</g>
				<g id="XMLID_4172_">
					<polygon id="XMLID_4173_" fill="#78909C" points="185.231,229.332 180.873,231.863 175.868,228.975 180.226,226.44 					"/>
				</g>
			</g>
			<g id="XMLID_4164_" enable-background="new    ">
				<g id="XMLID_4169_">
					<polygon id="XMLID_4170_" fill="#436772" points="179.208,232.83 179.206,234.019 174.848,236.549 174.851,235.362 					"/>
				</g>
				<g id="XMLID_4167_">
					<polygon id="XMLID_4168_" fill="#BEC8CC" points="174.851,235.362 174.848,236.549 169.842,233.66 169.847,232.473 					"/>
				</g>
				<g id="XMLID_4165_">
					<polygon id="XMLID_4166_" fill="#78909C" points="179.208,232.83 174.851,235.362 169.847,232.473 174.204,229.94 					"/>
				</g>
			</g>
			<g id="XMLID_4157_" enable-background="new    ">
				<g id="XMLID_4162_">
					<polygon id="XMLID_4163_" fill="#436772" points="191.837,233.146 191.834,234.332 187.476,236.864 187.48,235.678 					"/>
				</g>
				<g id="XMLID_4160_">
					<polygon id="XMLID_4161_" fill="#BEC8CC" points="187.48,235.678 187.476,236.864 182.472,233.977 182.475,232.787 					"/>
				</g>
				<g id="XMLID_4158_">
					<polygon id="XMLID_4159_" fill="#78909C" points="191.837,233.146 187.48,235.678 182.475,232.787 186.833,230.256 					"/>
				</g>
			</g>
			<g id="XMLID_4150_" enable-background="new    ">
				<g id="XMLID_4155_">
					<polygon id="XMLID_4156_" fill="#436772" points="185.814,236.646 185.812,237.834 181.454,240.364 181.458,239.177 					"/>
				</g>
				<g id="XMLID_4153_">
					<polygon id="XMLID_4154_" fill="#BEC8CC" points="181.458,239.177 181.454,240.364 176.45,237.475 176.453,236.288 					"/>
				</g>
				<g id="XMLID_4151_">
					<polygon id="XMLID_4152_" fill="#78909C" points="185.814,236.646 181.458,239.177 176.453,236.288 180.81,233.756 					"/>
				</g>
			</g>
			<g id="XMLID_4143_" enable-background="new    ">
				<g id="XMLID_4148_">
					<polygon id="XMLID_4149_" fill="#436772" points="198.541,237.015 198.538,238.203 194.18,240.735 194.184,239.547 					"/>
				</g>
				<g id="XMLID_4146_">
					<polygon id="XMLID_4147_" fill="#BEC8CC" points="194.184,239.547 194.18,240.735 189.175,237.847 189.178,236.658 					"/>
				</g>
				<g id="XMLID_4144_">
					<polygon id="XMLID_4145_" fill="#78909C" points="198.541,237.015 194.184,239.547 189.178,236.658 193.536,234.126 					"/>
				</g>
			</g>
			<g id="XMLID_4136_" enable-background="new    ">
				<g id="XMLID_4141_">
					<polygon id="XMLID_4142_" fill="#436772" points="192.518,240.516 192.515,241.702 188.158,244.234 188.161,243.048 					"/>
				</g>
				<g id="XMLID_4139_">
					<polygon id="XMLID_4140_" fill="#BEC8CC" points="188.161,243.048 188.158,244.234 183.153,241.346 183.156,240.157 					"/>
				</g>
				<g id="XMLID_4137_">
					<polygon id="XMLID_4138_" fill="#78909C" points="192.518,240.516 188.161,243.048 183.156,240.157 187.513,237.625 					"/>
				</g>
			</g>
			<g id="XMLID_4125_" enable-background="new    ">
				<g id="XMLID_4134_">
					<polygon id="XMLID_4135_" fill="#436772" points="207.875,242.404 207.871,243.593 201.848,247.092 201.852,245.904 					"/>
				</g>
				<g id="XMLID_4132_">
					<polygon id="XMLID_4133_" fill="#BEC8CC" points="193.109,245.904 193.105,247.092 189.913,245.248 189.917,244.063 					"/>
				</g>
				<g id="XMLID_4130_">
					<polygon id="XMLID_4131_" fill="#BEC8CC" points="197.494,248.437 197.492,249.623 193.105,247.092 193.109,245.904 					"/>
				</g>
				<g id="XMLID_4128_">
					<polygon id="XMLID_4129_" fill="#436772" points="201.852,245.904 201.848,247.092 197.492,249.623 197.494,248.437 					"/>
				</g>
				<g id="XMLID_4126_">
					<polygon id="XMLID_4127_" fill="#78909C" points="207.875,242.404 201.852,245.904 197.494,248.437 193.109,245.904 
						189.917,244.063 194.275,241.528 197.466,243.37 203.488,239.874 					"/>
				</g>
			</g>
			<g id="XMLID_4118_" enable-background="new    ">
				<g id="XMLID_4123_">
					<polygon id="XMLID_4124_" fill="#436772" points="195.813,249.415 195.809,250.602 191.452,253.132 191.456,251.944 					"/>
				</g>
				<g id="XMLID_4121_">
					<polygon id="XMLID_4122_" fill="#BEC8CC" points="191.456,251.944 191.452,253.132 154.08,231.555 154.083,230.369 					"/>
				</g>
				<g id="XMLID_4119_">
					<polygon id="XMLID_4120_" fill="#78909C" points="195.813,249.415 191.456,251.944 154.083,230.369 158.44,227.837 					"/>
				</g>
			</g>
			<g id="XMLID_4111_" enable-background="new    ">
				<g id="XMLID_4116_">
					<polygon id="XMLID_4117_" fill="#436772" points="214.867,246.443 214.865,247.629 210.507,250.161 210.511,248.976 					"/>
				</g>
				<g id="XMLID_4114_">
					<polygon id="XMLID_4115_" fill="#BEC8CC" points="210.511,248.976 210.507,250.161 205.501,247.271 205.505,246.083 					"/>
				</g>
				<g id="XMLID_4112_">
					<polygon id="XMLID_4113_" fill="#78909C" points="214.867,246.443 210.511,248.976 205.505,246.083 209.862,243.555 					"/>
				</g>
			</g>
			<g id="XMLID_4104_" enable-background="new    ">
				<g id="XMLID_4109_">
					<polygon id="XMLID_4110_" fill="#436772" points="208.845,249.942 208.841,251.128 204.484,253.66 204.488,252.474 					"/>
				</g>
				<g id="XMLID_4107_">
					<polygon id="XMLID_4108_" fill="#BEC8CC" points="204.488,252.474 204.484,253.66 199.479,250.771 199.483,249.585 					"/>
				</g>
				<g id="XMLID_4105_">
					<polygon id="XMLID_4106_" fill="#78909C" points="208.845,249.942 204.488,252.474 199.483,249.585 203.84,247.05 					"/>
				</g>
			</g>
			<g id="XMLID_4097_" enable-background="new    ">
				<g id="XMLID_4102_">
					<polygon id="XMLID_4103_" fill="#436772" points="202.806,253.451 202.804,254.637 198.446,257.172 198.449,255.984 					"/>
				</g>
				<g id="XMLID_4100_">
					<polygon id="XMLID_4101_" fill="#BEC8CC" points="198.449,255.984 198.446,257.172 193.441,254.281 193.444,253.094 					"/>
				</g>
				<g id="XMLID_4098_">
					<polygon id="XMLID_4099_" fill="#78909C" points="202.806,253.451 198.449,255.984 193.444,253.094 197.801,250.562 					"/>
				</g>
			</g>
		</g>
	</g>
	<path id="XMLID_4073_" fill="#D2D3D3" d="M194.667,227.279l20.919,12.078c5.092,2.939,13.506,2.613,17.868-0.693l23.856-19.3
		l-28.016-16.175l-33.428,13.774C190.14,219.482,189.575,224.339,194.667,227.279z"/>
	<path id="XMLID_4072_" fill="#E5E5E5" d="M194.667,227.279l20.919,12.078c5.092,2.939,13.506,2.613,17.868-0.693l23.856-19.3
		l-28.016-16.175l-33.428,13.774C190.14,219.482,189.575,224.339,194.667,227.279z"/>
	<path id="XMLID_4071_" fill="#E5E5E5" d="M172.316,172.951l13.983-101.659c0.249-1.573,5.562-4.654,9.135-2.775l121.322,70.043
		c1.707,0.985,2.627,2.924,2.313,4.87l-16.327,101.016c-0.381,2.358-2.377,3.893-4.536,3.967l-0.011,0.026h-3.521l1.1-0.6
		c-0.031-0.02-0.063-0.021-0.096-0.041l-121.048-69.994C172.927,176.822,172.008,174.892,172.316,172.951z"/>
	<path id="XMLID_4070_" fill="#FFFFFF" d="M292.507,249.146l-121.049-69.994c-1.702-0.984-2.621-2.914-2.313-4.854L185.2,73.23
		c0.521-3.289,4.179-5.032,7.063-3.367l121.32,70.045c1.708,0.985,2.628,2.923,2.314,4.869l-16.325,101.016
		C299.039,249.076,295.386,250.811,292.507,249.146z"/>
	<path id="XMLID_4069_" fill="#7C86C2" d="M292.497,240.34l-115.361-66.676c-1.034-0.598-1.593-1.77-1.405-2.948l14.378-90.515
		c0.318-1.994,2.535-3.051,4.284-2.042l113.514,65.513c1.034,0.599,1.595,1.773,1.403,2.954l-15.008,92.857
		C294.169,240.323,293.232,240.765,292.497,240.34z"/>
	<path id="XMLID_4068_" fill="#404EA1" d="M179.03,172.712c-1.035-0.598-1.592-1.769-1.405-2.948l14.377-90.515
		c0.092-0.577,0.347-1.073,0.699-1.466c-1.25,0.112-2.374,1.042-2.593,2.418l-14.378,90.515c-0.187,1.178,0.371,2.35,1.405,2.948
		l115.361,66.676c0.735,0.426,1.671-0.018,1.806-0.857l0.022-0.134L179.03,172.712z"/>
	
		<line id="XMLID_4054_" fill="none" stroke="#B7E5FA" stroke-width="2" stroke-linecap="round" stroke-linejoin="round" stroke-miterlimit="10" x1="199.268" y1="94.76" x2="217.744" y2="105.422"/>
	<g id="XMLID_4050_">
		
			<line id="XMLID_4053_" fill="none" stroke="#B7E5FA" stroke-width="2" stroke-linecap="round" stroke-linejoin="round" stroke-miterlimit="10" x1="294.627" y1="149.744" x2="298.173" y2="151.792"/>
		
			<line id="XMLID_4052_" fill="none" stroke="#B7E5FA" stroke-width="2" stroke-linecap="round" stroke-linejoin="round" stroke-miterlimit="10" x1="287.782" y1="145.83" x2="290.802" y2="147.572"/>
		
			<line id="XMLID_4051_" fill="none" stroke="#B7E5FA" stroke-width="2" stroke-linecap="round" stroke-linejoin="round" stroke-miterlimit="10" x1="280.557" y1="141.625" x2="283.613" y2="143.389"/>
	</g>
	<path id="XMLID_4049_" fill="#FFE0B2" d="M140.231,113.995c0,0,18.446,42.449-13.31,54.639
		C95.164,180.825,140.231,113.995,140.231,113.995z"/>
	<path id="XMLID_4048_" fill="#FFE0B2" d="M217.932,256.786c0.065-0.216,0.215-0.39,0.618-0.652
		c1.434-0.934,2.915-1.799,4.419-2.613c2.271-1.229,5.044-2.616,7.683-2.238c3.07,0.438,13.988,3.843,15.891,5.566
		c1.134,1.029,0.421,2.678-0.55,3.588c-1.488,1.397-3.459,2.092-5.413,2.542c-2.262,0.519-5.089,0.531-6.759,2.378
		c-1.946,2.147-3.826,4.159-6.249,5.798c-0.964,0.649-1.981,1.246-3.104,1.546c-1.058,0.281-2.85,0.481-3.334-0.648
		c-0.569-1.329-0.961-2.747-1.546-4.083c-1.13-2.574-2.393-5.247-2.29-8.127c0.026-0.736,0.392-1.405,0.515-2.12
		C217.887,257.271,217.865,257.007,217.932,256.786z"/>
	<path id="XMLID_4047_" fill="#265D6D" d="M129.067,176.405c0,0,26.101,20.751,30.404,50.121
		c4.305,29.369,6.346,32.705,12.786,32.626c7.469-0.092,37.602-2.754,44.848-3.515c0,0,11.767,6.795,4.216,19.622
		c0,0-47.35,18.857-61.942,18.857c-20.921,0-25.731-32.399-25.731-32.399s5.95,8.009,4.049,26.585c0,0-28.862,23.938-72.391,2.785
		c0,0-8.061-83.776,7.038-111.669C87.443,151.525,129.067,176.405,129.067,176.405z"/>
	<path id="XMLID_4046_" fill="#102B4C" d="M140.231,113.995c0,0,3.478,1.118,5.327,7.77c0,0,8.613-18.225-16.366-32.076
		c-9.731-5.395-18.466-7.181-28.704-3.119c-10.865,4.31-19.98,9.8-25.398,20.701c-13.143,26.436,0.247,57.597,28.217,66.295
		c4.694,1.459,9.75,2.188,14.533,1.055c16.633-3.945,7.97-26.041,14.645-38.375C141.966,118.725,140.231,113.995,140.231,113.995z"
		/>
	<path id="XMLID_4045_" fill="#90A4AE" d="M41.222,216.855c0,0,13.2-9.042,26.387-5.262c13.188,3.781,54.43,22.467,54.43,41.458
		c0,14.946,0,46.99,0,52.441s-3.612,14.945-19.785,18.298L41.222,216.855z"/>
	
		<linearGradient id="XMLID_17_" gradientUnits="userSpaceOnUse" x1="410.0898" y1="-10.9912" x2="410.0898" y2="-93.4053" gradientTransform="matrix(1 0 0 -1 -328.46 229.8398)">
		<stop  offset="0" style="stop-color:#FFFFFF;stop-opacity:0"/>
		<stop  offset="1" style="stop-color:#90A4AE"/>
	</linearGradient>
	<path id="XMLID_4044_" fill="url(#XMLID_17_)" d="M41.222,216.855c0,0,13.2-9.042,26.387-5.262
		c13.188,3.781,54.43,22.467,54.43,41.458c0,14.946,0,46.99,0,52.441s-3.612,14.945-19.785,18.298L41.222,216.855z"/>
	<path id="XMLID_4043_" fill="#D1D8DC" d="M47.075,293.891l50.539,29.181c4.463,2.575,8.081-0.16,8.081-6.109v-55.469
		c0-5.952-3.618-12.864-8.081-15.439l-50.539-29.179c-4.462-2.577-8.081,0.158-8.081,6.108v55.468
		C38.994,284.402,42.613,291.313,47.075,293.891z"/>
	<path id="XMLID_4042_" fill="#90A4AE" d="M66.259,277.923l6.908,3.988c3.048,1.761,5.519-0.108,5.519-4.173v-6.004
		c0-4.064-2.47-8.786-5.519-10.546l-6.908-3.987c-3.047-1.762-5.518,0.105-5.518,4.171v6.005
		C60.742,271.442,63.212,276.164,66.259,277.923z"/>
	<g id="XMLID_4037_">
		<path id="XMLID_4041_" fill="#EDEFEF" d="M63.755,261.32c0,0-13.056,5.313-13.056,27.478v50.338
			c0,14.455,11.72,26.175,26.178,26.175h9.194v-8.653l-17.495-9.907c0,0,0-42.008,0-51.576c0-9.567,2.812-15.254,6.034-17.307
			C74.61,277.868,77.381,263.9,63.755,261.32z"/>
		
			<linearGradient id="XMLID_18_" gradientUnits="userSpaceOnUse" x1="396.8457" y1="-45.2974" x2="396.8457" y2="-159.2197" gradientTransform="matrix(1 0 0 -1 -328.46 229.8398)">
			<stop  offset="0" style="stop-color:#FFFFFF;stop-opacity:0"/>
			<stop  offset="1" style="stop-color:#90A4AE"/>
		</linearGradient>
		<path id="XMLID_4040_" fill="url(#XMLID_18_)" d="M63.755,261.32c0,0-13.056,5.313-13.056,27.478v50.338
			c0,14.455,11.72,26.175,26.178,26.175h9.194v-8.653l-17.495-9.907c0,0,0-42.008,0-51.576c0-9.567,2.812-15.254,6.034-17.307
			C74.61,277.868,77.381,263.9,63.755,261.32z"/>
		<path id="XMLID_4039_" fill="#D1D8DC" d="M86.072,356.657c0,0-17.495,0.905-17.495-9.907L86.072,356.657z"/>
		
			<linearGradient id="XMLID_19_" gradientUnits="userSpaceOnUse" x1="385.8906" y1="-141.7568" x2="405.2813" y2="-122.3662" gradientTransform="matrix(1 0 0 -1 -328.46 229.8398)">
			<stop  offset="0" style="stop-color:#FFFFFF;stop-opacity:0"/>
			<stop  offset="1" style="stop-color:#90A4AE"/>
		</linearGradient>
		<path id="XMLID_4038_" fill="url(#XMLID_19_)" d="M86.072,356.657c0,0-17.495,0.905-17.495-9.907L86.072,356.657z"/>
	</g>
	<circle id="XMLID_2196_" fill="#FFE0B2" cx="127.704" cy="145.403" r="8.236"/>
	<g id="XMLID_4550_">
		<g id="XMLID_4567_">
			<path id="XMLID_4548_" fill="#873F1D" d="M331.199,266.588c-4.457,2.574-11.686,2.574-16.144,0c-4.458-2.573-4.458-6.744,0-9.321
				c4.458-2.573,11.687-2.573,16.144,0C335.657,259.844,335.657,264.015,331.199,266.588z"/>
			<polygon id="XMLID_4547_" fill="#873F1D" points="311.713,261.929 309.34,247.938 336.914,247.938 334.542,261.929 			"/>
			<path id="XMLID_4546_" fill="#9D5B36" d="M333.148,241.172c-5.555-3.208-14.563-3.208-20.12,0
				c-2.777,1.605-4.165,3.706-4.165,5.807l0,0v1.922c0,2.103,1.388,4.206,4.165,5.81c5.557,3.208,14.564,3.208,20.12,0
				c2.779-1.604,4.168-3.707,4.168-5.81v-1.922C337.315,244.878,335.926,242.775,333.148,241.172z"/>
			<path id="XMLID_4545_" fill="#873F1D" d="M332.134,252.079c-4.893,2.707-12.908,2.563-17.905-0.321
				c-4.995-2.885-5.079-7.417-0.186-10.124s12.909-2.563,17.904,0.322C336.945,244.839,337.029,249.373,332.134,252.079z"/>
			<path id="XMLID_4544_" fill="#3F2723" d="M331.947,245.054c-4.995-2.886-13.011-3.028-17.904-0.322
				c-1.726,0.954-2.801,2.142-3.289,3.396c0.517,1.316,1.662,2.583,3.475,3.628c4.997,2.884,13.013,3.029,17.905,0.322
				c1.726-0.955,2.8-2.141,3.289-3.396C334.909,247.366,333.763,246.101,331.947,245.054z"/>
		</g>
		<g id="XMLID_4551_">
			<circle id="XMLID_4543_" fill="#359044" cx="323.134" cy="231.098" r="18.609"/>
			
				<linearGradient id="XMLID_20_" gradientUnits="userSpaceOnUse" x1="645.2324" y1="8.7002" x2="662.8521" y2="-18.8783" gradientTransform="matrix(1 0 0 -1 -328.46 229.8398)">
				<stop  offset="0" style="stop-color:#FFFFFF;stop-opacity:0"/>
				<stop  offset="0.2717" style="stop-color:#BAD8BF;stop-opacity:0.2717"/>
				<stop  offset="0.5201" style="stop-color:#81B98A;stop-opacity:0.5201"/>
				<stop  offset="0.7319" style="stop-color:#59A263;stop-opacity:0.7319"/>
				<stop  offset="0.8988" style="stop-color:#3E954C;stop-opacity:0.8988"/>
				<stop  offset="1" style="stop-color:#359044"/>
			</linearGradient>
			<circle id="XMLID_2199_" fill="url(#XMLID_20_)" cx="323.134" cy="231.098" r="18.609"/>
			<path id="XMLID_4542_" fill="#386C34" d="M306.882,238.923c0.409-0.646,1.265-0.839,1.912-0.432
				c0.648,0.41,0.841,1.268,0.431,1.913c-0.409,0.65-2.984,2.13-2.984,2.13S306.472,239.571,306.882,238.923z"/>
			<path id="XMLID_4465_" fill="#386C34" d="M307.629,235.228c0.691,0.331,0.985,1.158,0.657,1.85
				c-0.331,0.692-1.16,0.984-1.851,0.654c-0.692-0.329-2.466-2.713-2.466-2.713S306.938,234.898,307.629,235.228z"/>
			<path id="XMLID_4464_" fill="#386C34" d="M326.82,229.222c-0.343,0.688-1.178,0.964-1.862,0.619
				c-0.686-0.343-0.963-1.176-0.619-1.86c0.344-0.687,2.761-2.413,2.761-2.413S327.163,228.536,326.82,229.222z"/>
			<path id="XMLID_4463_" fill="#386C34" d="M339.923,230.422c-0.752-0.153-1.236-0.887-1.083-1.639
				c0.152-0.751,0.886-1.234,1.637-1.081c0.751,0.154,3.047,2.037,3.047,2.037S340.673,230.573,339.923,230.422z"/>
			<path id="XMLID_4462_" fill="#386C34" d="M340.443,226.067c-0.241,0.421-0.772,0.563-1.193,0.324
				c-0.418-0.239-0.562-0.775-0.321-1.193c0.24-0.419,1.82-1.419,1.82-1.419S340.683,225.649,340.443,226.067z"/>
			<path id="XMLID_4461_" fill="#386C34" d="M323.448,227.516c0.086,0.477-0.229,0.931-0.705,1.016
				c-0.475,0.085-0.929-0.229-1.015-0.704c-0.085-0.475,0.482-2.259,0.482-2.259S323.363,227.041,323.448,227.516z"/>
			<path id="XMLID_4460_" fill="#386C34" d="M328.379,243.488c-0.103-0.759,0.431-1.458,1.189-1.559
				c0.76-0.101,1.459,0.434,1.558,1.192c0.104,0.759-0.925,3.545-0.925,3.545S328.479,244.248,328.379,243.488z"/>
			<path id="XMLID_4459_" fill="#386C34" d="M332.125,243.005c-0.338-0.345-0.332-0.897,0.012-1.235
				c0.347-0.34,0.899-0.332,1.236,0.013c0.339,0.344,0.872,2.138,0.872,2.138S332.462,243.349,332.125,243.005z"/>
			<circle id="XMLID_4457_" fill="#FCD839" cx="313.517" cy="228.545" r="1.278"/>
			<circle id="XMLID_4456_" fill="#FCD839" cx="337.314" cy="234.997" r="1.279"/>
			<circle id="XMLID_4455_" fill="#FCD839" cx="307.842" cy="221.16" r="1.28"/>
			<circle id="XMLID_4454_" fill="#FCD839" cx="324.623" cy="237.029" r="2.032"/>
			<circle id="XMLID_4453_" fill="#FCD839" cx="314.27" cy="247.259" r="2.033"/>
			<circle id="XMLID_4374_" fill="#FCD839" cx="332.428" cy="223.328" r="1.816"/>
		</g>
	</g>
	<g id="XMLID_68_">
		<path fill="none" stroke="#FFFFFF" stroke-linecap="round" stroke-miterlimit="10" stroke-dasharray="4.979,4.979" d="
			M244.497,199.557c-5.979,0-12.037-3.378-17.058-9.516c-11.127-13.6-14.974-37.131-8.759-53.569
			c3.672-9.709,10.303-15.279,18.189-15.279c5.979,0,12.035,3.379,17.057,9.516c11.127,13.602,14.976,37.132,8.759,53.57
			C259.015,193.988,252.384,199.557,244.497,199.557z"/>
	</g>
	<path id="XMLID_2_" fill="#FFFFFF" d="M259.144,182.939c-5.695,15.06-18.575,17.166-28.771,4.705
		c-10.195-12.462-13.843-34.772-8.148-49.832c5.695-15.061,18.574-17.166,28.77-4.706
		C261.189,145.569,264.837,167.879,259.144,182.939z"/>
	<g id="XMLID_3_">
		<path id="XMLID_66_" fill="#384850" d="M250.994,159.005c-0.732,6.258-5.423,8.281-10.478,4.518
			c-5.053-3.765-8.556-11.889-7.822-18.146c0.732-6.259,5.423-8.281,10.478-4.517C248.226,144.623,251.729,152.747,250.994,159.005z
			"/>
		<path id="XMLID_65_" fill="#384850" d="M240.518,163.522c-6.202-4.62-11.959-2.137-12.857,5.542l22.46,16.729
			C251.019,178.112,246.721,168.141,240.518,163.522z"/>
	</g>
	<path id="XMLID_1135_" opacity="0.8" fill="#9F9F9F" enable-background="new    " d="M339.549,132.022l-60.596-34.985
		c-0.931-0.537-1.503-1.53-1.503-2.604V32.236c0-2.315,2.504-3.761,4.508-2.604l59.285,34.228c1.742,1.006,2.815,2.864,2.815,4.876
		v60.683C344.06,131.734,341.555,133.18,339.549,132.022z"/>
	<path id="XMLID_1142_" opacity="0.67" fill="#9F9F9F" enable-background="new    " d="M254.349,73.151l-40.697-23.496
		c-0.623-0.361-1.01-1.028-1.01-1.749V6.134c0-1.555,1.683-2.525,3.029-1.749l39.815,22.987c1.17,0.676,1.891,1.923,1.891,3.274
		v40.755C257.377,72.957,255.695,73.927,254.349,73.151z"/>
	<g id="XMLID_3980_">
		<g id="XMLID_3984_">
			<circle id="XMLID_3986_" fill="#FEC550" cx="276.631" cy="135.263" r="23.068"/>
			<polygon id="XMLID_3985_" fill="#FEC550" points="261.867,145.562 253.563,158.035 270.169,153.742 			"/>
		</g>
	</g>
	<g id="XMLID_1069_">
		<path id="XMLID_1074_" fill="#F06692" d="M300.424,63.47l-14.418-8.325c-0.222-0.127-0.358-0.364-0.358-0.62v-9.521
			c0-0.551,0.598-0.895,1.073-0.619l14.106,8.144c0.415,0.239,0.672,0.683,0.672,1.159v9.162
			C301.498,63.401,300.901,63.745,300.424,63.47z"/>
		<path id="XMLID_1140_" fill="#F06692" d="M296.921,95.994l-11.065-6.388c-0.167-0.098-0.272-0.279-0.272-0.476V77.775
			c0-0.423,0.457-0.687,0.823-0.475l10.824,6.248c0.317,0.184,0.513,0.523,0.513,0.891v11.078
			C297.743,95.941,297.286,96.205,296.921,95.994z"/>
		
			<line id="XMLID_1161_" fill="none" stroke="#384850" stroke-linecap="round" stroke-miterlimit="10" x1="285.632" y1="61.774" x2="335.876" y2="90.783"/>
		
			<line id="XMLID_1163_" fill="none" stroke="#384850" stroke-linecap="round" stroke-miterlimit="10" x1="285.632" y1="65.497" x2="335.876" y2="94.505"/>
		
			<line id="XMLID_1164_" fill="none" stroke="#384850" stroke-linecap="round" stroke-miterlimit="10" x1="285.632" y1="69.22" x2="335.876" y2="98.228"/>
		
			<line id="XMLID_1165_" fill="none" stroke="#384850" stroke-linecap="round" stroke-miterlimit="10" x1="285.632" y1="72.942" x2="335.876" y2="101.95"/>
		
			<line id="XMLID_1173_" fill="none" stroke="#384850" stroke-linecap="round" stroke-miterlimit="10" x1="306.961" y1="59.018" x2="335.876" y2="75.712"/>
		
			<line id="XMLID_1172_" fill="none" stroke="#384850" stroke-linecap="round" stroke-miterlimit="10" x1="306.961" y1="62.739" x2="335.876" y2="79.434"/>
		
			<line id="XMLID_1171_" fill="none" stroke="#384850" stroke-linecap="round" stroke-miterlimit="10" x1="306.961" y1="66.462" x2="335.876" y2="83.157"/>
		
			<line id="XMLID_1170_" fill="none" stroke="#384850" stroke-linecap="round" stroke-miterlimit="10" x1="285.632" y1="57.871" x2="335.876" y2="86.879"/>
		
			<line id="XMLID_1166_" fill="none" stroke="#384850" stroke-linecap="round" stroke-miterlimit="10" x1="301.498" y1="85.823" x2="335.876" y2="105.672"/>
		
			<line id="XMLID_1167_" fill="none" stroke="#384850" stroke-linecap="round" stroke-miterlimit="10" x1="301.498" y1="89.546" x2="335.876" y2="109.395"/>
		
			<line id="XMLID_1168_" fill="none" stroke="#384850" stroke-linecap="round" stroke-miterlimit="10" x1="301.498" y1="93.269" x2="335.876" y2="113.118"/>
		
			<line id="XMLID_1169_" fill="none" stroke="#384850" stroke-linecap="round" stroke-miterlimit="10" x1="301.498" y1="96.99" x2="335.876" y2="116.839"/>
	</g>
	<g id="XMLID_1176_">
		<g>
			<path id="XMLID_34_" fill="#FFFFFF" stroke="#FFFFFF" stroke-width="0.75" stroke-miterlimit="10" d="M240.227,54.901
				c-1.786,0-3.738-0.584-5.744-1.742c-6.727-3.884-12.199-13.362-12.199-21.13c0-3.992,1.401-7,3.946-8.47
				c2.543-1.468,5.85-1.179,9.308,0.818c6.729,3.882,12.2,13.362,12.2,21.129c0,3.993-1.402,7.001-3.945,8.47
				C242.723,54.594,241.52,54.901,240.227,54.901z M229.803,24.749c-0.929,0-1.777,0.212-2.519,0.639
				c-1.863,1.076-2.891,3.436-2.891,6.642c0,7.095,5,15.753,11.144,19.301c2.777,1.604,5.333,1.893,7.199,0.817
				c1.863-1.076,2.889-3.435,2.889-6.642c0-7.096-4.999-15.754-11.145-19.3C232.808,25.239,231.213,24.749,229.803,24.749z"/>
			<polygon id="XMLID_33_" fill="#FFFFFF" stroke="#FFFFFF" stroke-width="0.75" stroke-miterlimit="10" points="231.964,44.493 
				231.964,29.527 240.785,42.103 			"/>
		</g>
	</g>
	<g id="XMLID_1177_">
		<path id="XMLID_1141_" opacity="0.8" fill="#D1D2D2" enable-background="new    " d="M203.258,117.968l-46.527-26.862
			c-0.714-0.412-1.154-1.174-1.154-1.999V41.351c0-1.777,1.924-2.888,3.463-1.999l45.519,26.281c1.338,0.772,2.163,2.2,2.163,3.744
			v46.594C206.721,117.747,204.797,118.858,203.258,117.968z"/>
		<g id="XMLID_1174_">
			<path id="XMLID_1182_" fill="#384750" d="M181.221,92.196l-6.355-11.008l-12.479,7.204c-0.756,0.438-1.726,0.179-2.163-0.579
				c-0.437-0.757-0.178-1.726,0.579-2.163l15.221-8.788l6.354,11.009l15.952-9.209c0.756-0.437,1.727-0.179,2.163,0.579
				c0.438,0.757,0.179,1.726-0.58,2.163L181.221,92.196z"/>
			<path id="XMLID_1183_" fill="#384750" d="M200.702,90.265c-0.874,0-1.584-0.708-1.584-1.583v-7.979l-6.288-3.63
				c-0.758-0.438-1.016-1.406-0.579-2.163c0.437-0.759,1.408-1.017,2.163-0.579l7.872,4.544v9.808
				C202.285,89.557,201.575,90.265,200.702,90.265z"/>
		</g>
		
			<line id="XMLID_1181_" fill="none" stroke="#F06692" stroke-width="2" stroke-linecap="round" stroke-linejoin="round" stroke-miterlimit="10" x1="162.02" y1="52.096" x2="172.72" y2="58.271"/>
		
			<line id="XMLID_1184_" fill="none" stroke="#F06692" stroke-width="2" stroke-linecap="round" stroke-linejoin="round" stroke-miterlimit="10" x1="178.951" y1="61.684" x2="182.806" y2="63.909"/>
	</g>
</g>
</svg>
