<svg width="790" height="1024" viewBox="0 0 790 1024" fill="none" xmlns="http://www.w3.org/2000/svg">
<rect width="790" height="1024" fill="url(#paint0_linear)"/>
<mask id="mask0" style="mask-type:alpha" maskUnits="userSpaceOnUse" x="0" y="0" width="790" height="1024">
<rect width="790" height="1024" fill="url(#paint1_linear)"/>
</mask>
<g mask="url(#mask0)">
<rect x="-17.1318" y="922.229" width="179.111" height="179.111" fill="url(#paint2_linear)"/>
<circle opacity="0.8" cx="241.595" cy="636.975" r="208.809" fill="url(#paint3_linear)"/>
<rect opacity="0.8" x="652.414" y="-116.784" width="243.154" height="243.154" fill="url(#paint4_linear)"/>
<circle opacity="0.8" cx="110.196" cy="60.2092" r="149.766" fill="url(#paint5_linear)"/>
<circle cx="604.434" cy="74.553" r="3.81283" fill="#8967EA" fill-opacity="0.4"/>
<circle cx="604.434" cy="99.1036" r="3.81283" fill="#8967EA" fill-opacity="0.4"/>
<circle cx="604.434" cy="123.654" r="3.81283" fill="#8967EA" fill-opacity="0.4"/>
<circle cx="604.434" cy="148.205" r="3.81283" fill="#8967EA" fill-opacity="0.4"/>
<circle cx="604.434" cy="172.756" r="3.81283" fill="#8967EA" fill-opacity="0.4"/>
<circle cx="628.979" cy="74.5529" r="3.81283" fill="#8967EA" fill-opacity="0.4"/>
<circle cx="628.979" cy="99.1036" r="3.81283" fill="#8967EA" fill-opacity="0.4"/>
<circle cx="628.979" cy="123.654" r="3.81283" fill="#8967EA" fill-opacity="0.4"/>
<circle cx="628.979" cy="148.205" r="3.81283" fill="#8967EA" fill-opacity="0.4"/>
<circle cx="628.979" cy="172.756" r="3.81283" fill="#8967EA" fill-opacity="0.4"/>
<circle cx="653.535" cy="74.5529" r="3.81283" fill="#8967EA" fill-opacity="0.4"/>
<circle cx="653.535" cy="99.1036" r="3.81283" fill="#8967EA" fill-opacity="0.4"/>
<circle cx="653.535" cy="123.654" r="3.81283" fill="#8967EA" fill-opacity="0.4"/>
<circle cx="653.535" cy="148.205" r="3.81283" fill="#8967EA" fill-opacity="0.4"/>
<circle cx="653.535" cy="172.756" r="3.81283" fill="#8967EA" fill-opacity="0.4"/>
<circle cx="678.086" cy="74.5529" r="3.81283" fill="#8967EA" fill-opacity="0.4"/>
<circle cx="678.086" cy="99.1036" r="3.81283" fill="#8967EA" fill-opacity="0.4"/>
<circle cx="678.086" cy="123.654" r="3.81283" fill="#8967EA" fill-opacity="0.4"/>
<circle cx="678.086" cy="148.205" r="3.81283" fill="#8967EA" fill-opacity="0.4"/>
<circle cx="678.086" cy="172.756" r="3.81283" fill="#8967EA" fill-opacity="0.4"/>
<circle cx="702.627" cy="74.5529" r="3.81283" fill="#8967EA" fill-opacity="0.4"/>
<circle cx="702.627" cy="99.1036" r="3.81283" fill="#8967EA" fill-opacity="0.4"/>
<circle cx="702.627" cy="123.654" r="3.81283" fill="#8967EA" fill-opacity="0.4"/>
<circle cx="702.627" cy="148.205" r="3.81283" fill="#8967EA" fill-opacity="0.4"/>
<circle cx="702.627" cy="172.756" r="3.81283" fill="#8967EA" fill-opacity="0.4"/>
<circle cx="213.147" cy="151.302" r="71.8335" fill="url(#paint6_linear)"/>
<circle opacity="0.8" cx="717.806" cy="993.439" r="147.345" fill="url(#paint7_linear)"/>
<rect x="565.977" y="803.784" width="106" height="106" fill="url(#paint8_linear)"/>
</g>
<defs>
<linearGradient id="paint0_linear" x1="395" y1="0" x2="395" y2="987.151" gradientUnits="userSpaceOnUse">
<stop stop-color="#1C1B7E"/>
<stop offset="1" stop-color="#1E1079"/>
</linearGradient>
<linearGradient id="paint1_linear" x1="395" y1="0" x2="395" y2="987.151" gradientUnits="userSpaceOnUse">
<stop stop-color="#1C1B7E"/>
<stop offset="1" stop-color="#1E1079"/>
</linearGradient>
<linearGradient id="paint2_linear" x1="77.0202" y1="922.229" x2="77.0202" y2="1101.34" gradientUnits="userSpaceOnUse">
<stop stop-color="#2D29A3"/>
<stop offset="1" stop-color="#261B86" stop-opacity="0"/>
</linearGradient>
<linearGradient id="paint3_linear" x1="241.595" y1="428.167" x2="241.595" y2="845.784" gradientUnits="userSpaceOnUse">
<stop stop-color="#282599"/>
<stop offset="1" stop-color="#261B86"/>
</linearGradient>
<linearGradient id="paint4_linear" x1="773.991" y1="-116.784" x2="773.991" y2="126.37" gradientUnits="userSpaceOnUse">
<stop stop-color="#282599"/>
<stop offset="1" stop-color="#261B86"/>
</linearGradient>
<linearGradient id="paint5_linear" x1="110.196" y1="-89.5565" x2="110.196" y2="209.975" gradientUnits="userSpaceOnUse">
<stop stop-color="#282599"/>
<stop offset="1" stop-color="#261B86"/>
</linearGradient>
<linearGradient id="paint6_linear" x1="213.147" y1="79.4681" x2="213.147" y2="223.135" gradientUnits="userSpaceOnUse">
<stop stop-color="#5652CC"/>
<stop offset="1" stop-color="#32279B"/>
</linearGradient>
<linearGradient id="paint7_linear" x1="717.806" y1="846.094" x2="717.806" y2="1140.78" gradientUnits="userSpaceOnUse">
<stop stop-color="#282599"/>
<stop offset="1" stop-color="#261B86"/>
</linearGradient>
<linearGradient id="paint8_linear" x1="618.977" y1="803.784" x2="618.977" y2="909.784" gradientUnits="userSpaceOnUse">
<stop stop-color="#5652CC"/>
<stop offset="1" stop-color="#32279B"/>
</linearGradient>
</defs>
</svg>
